<svg t="1599099133886" class="icon" viewBox="0 0 1024 1024" version="1.1" xmlns="http://www.w3.org/2000/svg" p-id="839" width="200" height="200"><path d="M551.424 340.992c5.632 1.024 48.128-8.704 49.664-5.632 2.56 4.096 21.504 140.8 16.896 141.824-5.12 1.024-40.448 9.216-40.448 9.216-2.56-18.432-25.6-133.632-26.112-145.408M619.52 327.68l18.432 146.944c9.728-0.512 48.128-3.072 51.712-3.584-5.632-55.808-14.848-143.36-14.848-143.36-17.92-3.584-37.376-3.584-55.296 0M582.656 531.968s83.968-21.504 114.176-10.752c15.36 55.808 43.52 368.128 46.08 380.928-18.944 2.048-81.408 7.68-86.528 9.216-3.584-23.552-73.728-364.544-73.728-379.392M892.928 344.576c5.12 1.536 49.152-4.608 49.664-1.536 1.024 10.752 5.632 142.336 0.512 142.848-5.12 0.512-40.448 3.584-40.448 3.584-0.512-17.92-10.24-132.608-9.728-144.896M961.536 340.992l3.584 145.408c9.728 0 47.616 2.048 51.712 2.048-1.024-55.808 0-143.36 0-143.36-18.432-3.584-36.864-4.608-55.296-4.096M903.168 536.064s85.504-11.264 114.688 2.048c6.144 65.024 5.632 369.152 6.144 381.952-19.456 0-81.408 1.024-86.528 2.048-0.512-23.552-35.84-371.2-34.304-386.048M704 162.304c49.152 251.904 87.04 681.984 88.064 709.632 0 0 38.912 1.024 82.944 3.584-25.6-271.36-57.344-704.512-56.832-719.36-10.752-11.264-114.176 6.144-114.176 6.144M595.456 758.272c-9.728-70.656-262.144-151.04-404.48-124.928 0 0-17.408-155.648-24.576-306.688-5.632-129.536-1.024-255.488 0.512-276.48C157.696 44.032 55.296 92.16 0 112.64c0 0 66.048 280.064 114.176 860.672 0 0 76.288 8.192 207.872-17.408s286.72-104.448 273.408-197.632M286.72 885.248l-22.016-159.744c5.632-2.56 141.824 48.128 156.16 56.832-2.56 10.24-134.144 102.912-134.144 102.912" p-id="840"></path></svg>